<svg width="28" height="28" viewBox="0 0 28 28" fill="none" xmlns="http://www.w3.org/2000/svg">
<path d="M4.95834 2.25684e-06H23.0417C23.693 -0.000627348 24.338 0.130483 24.9399 0.385828C25.5417 0.641174 26.0886 1.01574 26.5491 1.4881C27.0097 1.96045 27.3749 2.52132 27.6238 3.1386C27.8728 3.75588 28.0006 4.41746 28 5.08547V22.9145C28.0006 23.5825 27.8728 24.2441 27.6238 24.8614C27.3749 25.4787 27.0097 26.0395 26.5491 26.5119C26.0886 26.9843 25.5417 27.3588 24.9399 27.6142C24.338 27.8695 23.693 28.0006 23.0417 28H4.95834C4.30703 28.0006 3.66199 27.8695 3.06014 27.6142C2.45829 27.3588 1.91144 26.9843 1.4509 26.5119C0.990349 26.0395 0.625145 25.4787 0.376183 24.8614C0.12722 24.2441 -0.000611664 23.5825 2.20042e-06 22.9145V5.08547C-0.000611664 4.41746 0.12722 3.75588 0.376183 3.1386C0.625145 2.52132 0.990349 1.96045 1.4509 1.4881C1.91144 1.01574 2.45829 0.641174 3.06014 0.385828C3.66199 0.130483 4.30703 -0.000627348 4.95834 2.25684e-06V2.25684e-06Z" fill="#2965F1"/>
<path d="M6.85377 11.5426L7.12928 14.617H14.0092V11.5426H6.85377ZM6.30005 5.31995L6.57951 8.39436H14.0092V5.31995H6.30005V5.31995ZM14.0092 19.5272L13.9958 19.5308L10.5718 18.6063L10.3529 16.1543H7.26665L7.69734 20.9816L13.9951 22.7298L14.0092 22.7259V19.5272Z" fill="#EBEBEB"/>
<path d="M21.1451 11.5426L21.7 5.31995H13.9986V8.39436H18.3308L18.051 11.5426H13.9986V14.617H17.7844L17.4275 18.6043L13.9985 19.5298V22.7283L20.3013 20.9816L20.3475 20.4622L21.0701 12.3682L21.1451 11.5426V11.5426Z" fill="white"/>
</svg>
