<svg width="28" height="28" viewBox="0 0 28 28" fill="none" xmlns="http://www.w3.org/2000/svg">
<path d="M20.1153 0C18.9951 0.0104833 17.8811 0.168822 16.8024 0.470912L16.726 0.493821C16.0468 0.377355 15.3596 0.313106 14.6705 0.301638C13.254 0.277456 12.0359 0.610913 11.0559 1.1671C10.0886 0.841278 8.0828 0.280002 5.96878 0.392002C4.49621 0.469639 2.89001 0.903642 1.69999 2.12292C0.512525 3.3422 -0.114937 5.2284 0.0174283 7.7955C0.0530651 8.50442 0.260522 9.65879 0.606708 11.1555C0.950349 12.651 1.43654 14.401 2.04109 15.9983C2.64564 17.5956 3.30874 19.0325 4.34476 20.0074C4.86149 20.4961 5.57295 20.9072 6.41169 20.8729C7.00097 20.8499 7.53425 20.5992 7.99371 20.2289C8.21771 20.5152 8.45699 20.6399 8.67463 20.7558C8.94827 20.9009 9.21554 21.0001 9.49173 21.0663C10.2565 21.2624 11.0531 21.3018 11.8336 21.1821C12.1734 21.1274 12.531 21.0205 12.8874 20.8678C12.9001 21.2521 12.9154 21.6289 12.932 22.0107C12.9803 23.2198 13.0121 24.336 13.3863 25.3147C13.4461 25.4751 13.6103 26.2985 14.2607 27.0253C14.9098 27.7533 16.1825 28.2064 17.6309 27.906C18.6529 27.6934 19.9537 27.3103 20.8166 26.1191C21.6693 24.9405 22.055 23.2503 22.1313 20.5076C22.1504 20.3599 22.1733 20.2339 22.1975 20.1156L22.4012 20.1334H22.4241C23.5148 20.1818 24.6985 20.0316 25.6874 19.5861C26.563 19.1916 27.2249 18.7945 27.7072 18.0881C27.8281 17.9137 27.9605 17.7025 27.9961 17.3372C28.0318 16.9745 27.818 16.4043 27.4603 16.1421C26.7438 15.6152 26.2945 15.815 25.8121 15.913C25.337 16.0148 24.855 16.0713 24.3663 16.0823C25.7574 13.8117 26.7539 11.3986 27.3229 9.26297C27.6589 8.00296 27.8485 6.84095 27.8638 5.82531C27.879 4.80967 27.7938 3.90984 27.1663 3.13093C25.205 0.700004 22.447 0.0280001 20.3139 0.00509087C20.2477 0.00339389 20.1815 0.00296974 20.1153 0.00381823V0ZM20.0593 0.747096C22.0766 0.728005 24.6552 1.27783 26.5058 3.57257C26.9219 4.08803 27.0454 4.84148 27.0314 5.77058C27.0161 6.6984 26.8392 7.80823 26.5159 9.02496C25.8885 11.3821 24.7023 14.1286 23.0312 16.5952C23.0905 16.6363 23.1546 16.6701 23.2221 16.6957C23.5708 16.8357 24.365 16.9554 25.9521 16.6397C26.3505 16.557 26.6432 16.5023 26.9461 16.7263C27.0186 16.7864 27.0762 16.8626 27.1144 16.9487C27.1526 17.0348 27.1704 17.1285 27.1663 17.2227C27.1495 17.3648 27.0955 17.5 27.0098 17.6147C26.7043 18.0614 26.0985 18.4852 25.3221 18.8339C24.6361 19.1445 23.651 19.3061 22.7779 19.3163C22.3401 19.3201 21.9366 19.287 21.5942 19.1839L21.5713 19.1763C21.439 20.4121 21.1348 22.8545 20.9375 23.9681C20.7784 24.8667 20.501 25.5807 19.9702 26.1153C19.4408 26.6498 18.6924 26.9718 17.6844 27.1818C16.4358 27.4414 15.5258 27.1614 14.9391 26.6816C14.3536 26.2043 14.0851 25.5692 13.9234 25.1798C13.8127 24.9125 13.7554 24.5651 13.6994 24.1005C13.6378 23.5443 13.5967 22.9861 13.576 22.4269C13.5394 21.4465 13.5275 20.4653 13.5403 19.4843C13.0185 19.9463 12.3694 20.2543 11.6732 20.3701C10.8459 20.5063 10.1052 20.3727 9.66355 20.2658C9.44703 20.2124 9.23767 20.1333 9.0399 20.0303C8.83372 19.9247 8.63899 19.805 8.50917 19.5683C8.43268 19.4332 8.40824 19.2747 8.44044 19.1228C8.48212 18.9685 8.57446 18.8327 8.70263 18.7372C8.9419 18.5488 9.25627 18.4445 9.731 18.3477C10.5965 18.1759 10.8981 18.0576 11.0814 17.9163C11.2379 17.7954 11.4148 17.551 11.7279 17.1908L11.7241 17.1437C11.1661 17.1274 10.6191 16.9846 10.1243 16.7263C9.94483 16.9096 9.02336 17.8552 7.89953 19.1661C7.42734 19.7147 6.90551 20.029 6.35442 20.0519C5.80332 20.0748 5.30568 19.805 4.88313 19.4079C4.03675 18.6112 3.3622 17.2405 2.77419 15.6916C2.18873 14.1414 1.71018 12.4155 1.37163 10.9455C1.03053 9.47551 0.829438 8.2906 0.801438 7.71914C0.674164 5.28949 1.25963 3.65275 2.26509 2.62056C3.27056 1.58837 4.64767 1.19637 5.99169 1.12255C8.40226 0.987642 10.6919 1.80347 11.1552 1.9791C12.0474 1.3911 13.1967 1.02455 14.6336 1.04746C15.3147 1.05693 15.9926 1.14231 16.6547 1.30201L16.6789 1.29183C16.9708 1.19255 17.2669 1.1094 17.5673 1.04237C18.385 0.857803 19.2198 0.759687 20.058 0.749641L20.0593 0.747096ZM20.2413 1.52855H20.067C19.3783 1.53783 18.6922 1.61284 18.0178 1.75256C19.3564 2.33557 20.5325 3.23642 21.4441 4.37694C21.9963 5.05925 22.4543 5.81266 22.8059 6.61695C22.9383 6.92495 23.0274 7.18586 23.077 7.38695C23.1024 7.48877 23.1203 7.57405 23.1254 7.66314C23.1301 7.71953 23.1253 7.77631 23.1114 7.83114L23.1037 7.84641C23.1406 8.86842 22.8797 9.56079 22.8479 10.5357C22.8237 11.2433 23.0095 12.0744 23.0554 12.9794C23.0986 13.8321 22.993 14.7675 22.4228 15.6865C22.4703 15.7425 22.5161 15.7985 22.5603 15.8545C24.0685 13.5508 25.1567 11.0002 25.7358 8.82769C26.045 7.65677 26.2105 6.59659 26.2245 5.75658C26.2372 4.91658 26.0756 4.30694 25.8694 4.05366C24.2555 2.05165 22.0728 1.54255 20.2413 1.52855ZM14.4822 1.82637C13.0605 1.82892 12.0398 2.24638 11.2672 2.87002C10.4692 3.51529 9.93464 4.3973 9.58337 5.30221C9.24335 6.20654 9.03546 7.15514 8.96609 8.11878L8.98263 8.10987C9.41155 7.87569 9.97537 7.64277 10.5787 7.50786C11.1832 7.37295 11.8336 7.33095 12.4229 7.55241C13.0121 7.77387 13.4996 8.29569 13.6765 9.08733C14.5229 12.8877 13.4131 14.3005 13.0032 15.3657C12.8495 15.7524 12.7169 16.1471 12.6061 16.5481C12.657 16.5337 12.7084 16.5235 12.7601 16.5176C12.9837 16.5055 13.2068 16.5492 13.4092 16.6448C13.8216 16.8103 14.1042 17.1565 14.2569 17.5536C14.2968 17.6588 14.3252 17.7691 14.3422 17.8845C14.3591 17.9328 14.3672 17.9825 14.3663 18.0334C14.3206 19.4866 14.3257 20.9409 14.3816 22.3938C14.4096 23.0225 14.4503 23.5749 14.5025 24.0114C14.5534 24.4467 14.6272 24.7776 14.6743 24.8896C14.8271 25.2638 15.0523 25.7525 15.4596 26.0847C15.8669 26.4169 16.4485 26.6371 17.5138 26.4156C18.4378 26.2234 19.008 25.9574 19.3899 25.5718C19.7691 25.1887 19.997 24.6554 20.142 23.8371C20.3597 22.6114 20.7975 19.0592 20.8497 18.3898C20.8268 17.887 20.9031 17.4988 21.0686 17.2036C21.2404 16.9006 21.5052 16.7148 21.733 16.6143C21.8475 16.5634 21.9544 16.5303 22.0422 16.5061C21.9487 16.3766 21.851 16.2502 21.7495 16.1268C21.4204 15.7418 21.1506 15.3098 20.949 14.8452C20.8518 14.654 20.7487 14.466 20.6397 14.2814C20.4806 14.0014 20.2782 13.6514 20.067 13.2581C19.6431 12.4703 19.1824 11.5157 18.9431 10.5853C18.7051 9.65751 18.6695 8.6966 19.2804 8.01823C19.8226 7.41623 20.7721 7.16677 22.1988 7.30677C22.1568 7.18459 22.1313 7.08277 22.0601 6.91986C21.7381 6.18039 21.3172 5.48806 20.809 4.86185C19.5999 3.36257 17.6437 1.87601 14.6196 1.82765H14.4822V1.82637ZM6.49442 1.88619C6.34169 1.88619 6.18896 1.89044 6.03623 1.89892C4.82203 1.96638 3.67402 2.30874 2.8531 3.15384C2.02964 3.99766 1.48872 5.3824 1.60581 7.67587C1.62999 8.1086 1.82472 9.32533 2.15818 10.7686C2.49164 12.2144 2.9651 13.9135 3.53274 15.4141C4.10039 16.9159 4.79022 18.223 5.44441 18.8416C5.77405 19.1508 6.06041 19.2756 6.32005 19.2654C6.58097 19.2527 6.89406 19.1076 7.27843 18.6608C7.97843 17.8417 8.70426 17.045 9.45482 16.2719C8.9245 15.8272 8.51626 15.2547 8.26862 14.6085C8.023 13.9683 7.94843 13.2753 8.05226 12.5975C8.17571 11.7346 8.19226 10.9277 8.17826 10.2913C8.16298 9.67024 8.11717 9.25788 8.11717 8.99951V8.96387C8.11585 7.61877 8.35686 6.28442 8.82863 5.02476C9.16463 4.15675 9.66609 3.27475 10.4183 2.56074C9.6801 2.32529 8.36917 1.96638 6.95006 1.89892C6.79747 1.89075 6.64469 1.88651 6.49187 1.88619H6.49442ZM21.4033 8.04878C20.5875 8.05896 20.1293 8.26387 19.8888 8.53114C19.5477 8.91042 19.5159 9.57479 19.7271 10.3944C19.9384 11.2141 20.3724 12.1317 20.7822 12.8928C20.9859 13.2746 21.1844 13.6183 21.3448 13.8957C21.5064 14.1757 21.6248 14.3743 21.6961 14.5448C21.7639 14.6984 21.8352 14.8388 21.9099 14.9661C22.2255 14.3183 22.2828 13.6832 22.2497 13.0201C22.2077 12.2004 22.0117 11.3617 22.041 10.5128C22.0728 9.52006 22.2752 8.87224 22.293 8.10478C21.9978 8.0688 21.7007 8.0501 21.4033 8.04878ZM11.5014 8.18241C11.2521 8.18431 11.0037 8.21333 10.7607 8.26896C10.2775 8.38289 9.81111 8.55915 9.37336 8.79333C9.22657 8.86969 9.08657 8.95836 8.95336 9.05933L8.9279 9.08224C8.93554 9.25278 8.9699 9.66642 8.98518 10.2735C8.9979 10.9392 8.98263 11.7881 8.85027 12.7044C8.56263 14.7001 10.0543 16.3521 11.8081 16.3546C11.9099 15.9448 12.0792 15.5299 12.2472 15.0921C12.736 13.8155 13.6969 12.8852 12.8874 9.25151C12.755 8.65714 12.4929 8.4166 12.1314 8.28041C11.929 8.21014 11.7156 8.17694 11.5014 8.18241ZM21.0215 8.42042H21.0826C21.1624 8.42296 21.2345 8.43145 21.299 8.44587C21.3575 8.45764 21.4135 8.47961 21.4644 8.51078C21.4876 8.52443 21.5076 8.54283 21.5232 8.56476C21.5388 8.58669 21.5495 8.61167 21.5548 8.63805V8.64824C21.5581 8.70417 21.5429 8.75965 21.5115 8.80605C21.476 8.87023 21.4314 8.92896 21.3792 8.98042C21.2558 9.1113 21.0932 9.19843 20.9159 9.2286C20.7421 9.24919 20.5667 9.20624 20.422 9.10769C20.3638 9.06924 20.3112 9.02299 20.2655 8.97024C20.2269 8.92903 20.2005 8.87793 20.1891 8.8226C20.1864 8.79538 20.1895 8.76788 20.1983 8.74197C20.207 8.71606 20.2213 8.69234 20.24 8.67242C20.2807 8.62971 20.3285 8.59439 20.3813 8.56805C20.5829 8.4755 20.8011 8.42443 21.0228 8.41787L21.0215 8.42042ZM11.6185 8.61642C11.6821 8.61642 11.7487 8.62151 11.8183 8.63169C12.0016 8.65714 12.1658 8.70424 12.2905 8.77424C12.3516 8.80563 12.405 8.84678 12.4509 8.89769C12.4746 8.92569 12.4924 8.95666 12.5043 8.9906C12.5162 9.02454 12.52 9.05975 12.5158 9.09624C12.5042 9.16372 12.4727 9.22621 12.4254 9.27569C12.3762 9.33498 12.3182 9.38647 12.2536 9.42842C12.0955 9.53606 11.9038 9.58265 11.7139 9.55951C11.5213 9.52842 11.3443 9.43497 11.2099 9.29351C11.1541 9.23654 11.1061 9.17233 11.0674 9.1026C11.0277 9.04157 11.0102 8.9688 11.0177 8.89642C11.0356 8.76914 11.1437 8.70551 11.2468 8.66733C11.366 8.62952 11.4911 8.61399 11.6159 8.62151L11.6185 8.61642ZM22.5132 17.1845H22.5093C22.3324 17.2481 22.1873 17.2736 22.0639 17.3245C21.9409 17.3701 21.839 17.4593 21.7775 17.5752C21.7012 17.7088 21.6375 17.9468 21.6566 18.3516C21.7114 18.3878 21.7715 18.4152 21.8348 18.433C22.0397 18.4941 22.3846 18.5348 22.7703 18.5285C23.5365 18.5196 24.4808 18.3465 24.9823 18.1199C25.3934 17.9341 25.7752 17.6923 26.1163 17.4021C24.4401 17.7381 23.4944 17.649 22.9128 17.4161C22.7693 17.3576 22.6348 17.2804 22.5132 17.1845ZM12.8556 17.2927H12.8301C12.7665 17.2977 12.6736 17.3181 12.4954 17.5116C12.0754 17.9672 11.9303 18.2523 11.5841 18.5196C11.2405 18.7868 10.7912 18.9281 9.89519 19.1063C9.61137 19.1623 9.44973 19.2247 9.34027 19.2743C9.37591 19.3023 9.37209 19.3099 9.42427 19.3367C9.55537 19.4067 9.72464 19.4678 9.85955 19.5021C10.2452 19.595 10.8777 19.7045 11.5383 19.595C12.1989 19.4856 12.8849 19.1788 13.4703 18.3821C13.5721 18.2447 13.5823 18.041 13.4996 17.8221C13.4143 17.6057 13.231 17.4174 13.1012 17.3639C13.0238 17.3274 12.9407 17.3042 12.8556 17.2952V17.2927Z" fill="#363F5C"/>
</svg>
